<svg xmlns="http://www.w3.org/2000/svg" width="512" height="512" viewBox="0 0 512 512">
  <defs>
    <linearGradient id="bg" x1="0%" y1="0%" x2="100%" y2="100%">
      <stop offset="0%" style="stop-color:#007aff"/>
      <stop offset="100%" style="stop-color:#0a84ff"/>
    </linearGradient>
  </defs>
  <!-- 圆角方形背景 -->
  <rect width="512" height="512" rx="112" fill="url(#bg)"/>
  
  <!-- 聊天气泡 -->
  <path d="M 140 180 
           C 140 155, 160 135, 185 135 
           L 327 135 
           C 352 135, 372 155, 372 180 
           L 372 280 
           C 372 305, 352 325, 327 325 
           L 256 325 
           L 200 370 
           L 200 325 
           L 185 325 
           C 160 325, 140 305, 140 280 
           Z" 
        fill="white" opacity="0.95"/>
  
  <!-- 翅膀（左） -->
  <path d="M 120 180 
           C 95 160, 75 200, 85 225 
           C 70 215, 55 235, 65 255 
           C 50 250, 40 270, 55 285 
           L 120 285" 
        fill="none" stroke="white" stroke-width="7" stroke-linecap="round" stroke-linejoin="round" opacity="0.8"/>
  
  <!-- 翅膀（右） -->
  <path d="M 392 180 
           C 417 160, 437 200, 427 225 
           C 442 215, 457 235, 447 255 
           C 462 250, 472 270, 457 285 
           L 392 285" 
        fill="none" stroke="white" stroke-width="7" stroke-linecap="round" stroke-linejoin="round" opacity="0.8"/>

  <!-- 闪电/思考符号 -->
  <path d="M 268 195 L 248 245 L 264 245 L 258 275 L 282 235 L 266 235 Z" 
        fill="#007aff" opacity="0.9"/>
</svg>
